<svg xmlns="http://www.w3.org/2000/svg" viewBox="0 0 512 512" width="100%" height="100%">
  <rect x="125.05" y="125.05" width="13.65" height="13.65" rx="3.41" fill="#d97757" fill-opacity="0.463" />
  <rect x="140.57" y="125.05" width="13.65" height="13.65" rx="3.41" fill="#d97757" fill-opacity="0.393" />
  <rect x="357.78" y="125.05" width="13.65" height="13.65" rx="3.41" fill="#d97757" fill-opacity="0.397" />
  <rect x="373.29" y="125.05" width="13.65" height="13.65" rx="3.41" fill="#d97757" fill-opacity="0.467" />
  <rect x="109.54" y="140.57" width="13.65" height="13.65" rx="3.41" fill="#d97757" fill-opacity="0.381" />
  <rect x="125.05" y="140.57" width="13.65" height="13.65" rx="3.41" fill="#d97757" fill-opacity="0.593" />
  <rect x="140.57" y="140.57" width="13.65" height="13.65" rx="3.41" fill="#d97757" fill-opacity="0.405" />
  <rect x="357.78" y="140.57" width="13.65" height="13.65" rx="3.41" fill="#d97757" fill-opacity="0.409" />
  <rect x="373.29" y="140.57" width="13.65" height="13.65" rx="3.41" fill="#d97757" fill-opacity="0.593" />
  <rect x="388.81" y="140.57" width="13.65" height="13.65" rx="3.41" fill="#d97757" fill-opacity="0.373" />
  <rect x="94.02" y="156.08" width="13.65" height="13.65" rx="3.41" fill="#d97757" fill-opacity="0.153" />
  <rect x="109.54" y="156.08" width="13.65" height="13.65" rx="3.41" fill="#d97757" fill-opacity="0.851" />
  <rect x="125.05" y="156.08" width="13.65" height="13.65" rx="3.41" fill="#d97757" fill-opacity="0.393" />
  <rect x="140.57" y="156.08" width="13.65" height="13.65" rx="3.41" fill="#d97757" fill-opacity="0.276" />
  <rect x="156.08" y="156.08" width="13.65" height="13.65" rx="3.41" fill="#d97757" fill-opacity="0.436" />
  <rect x="342.26" y="156.08" width="13.65" height="13.65" rx="3.41" fill="#d97757" fill-opacity="0.436" />
  <rect x="357.78" y="156.08" width="13.65" height="13.65" rx="3.41" fill="#d97757" fill-opacity="0.276" />
  <rect x="373.29" y="156.08" width="13.65" height="13.65" rx="3.41" fill="#d97757" fill-opacity="0.385" />
  <rect x="388.81" y="156.08" width="13.65" height="13.65" rx="3.41" fill="#d97757" fill-opacity="0.844" />
  <rect x="404.32" y="156.08" width="13.65" height="13.65" rx="3.41" fill="#d97757" fill-opacity="0.148" />
  <rect x="94.02" y="171.60" width="13.65" height="13.65" rx="3.41" fill="#d97757" fill-opacity="0.153" />
  <rect x="109.54" y="171.60" width="13.65" height="13.65" rx="3.41" fill="#d97757" fill-opacity="0.858" />
  <rect x="125.05" y="171.60" width="13.65" height="13.65" rx="3.41" fill="#d97757" fill-opacity="0.389" />
  <rect x="140.57" y="171.60" width="13.65" height="13.65" rx="3.41" fill="#d97757" fill-opacity="0.497" />
  <rect x="156.08" y="171.60" width="13.65" height="13.65" rx="3.41" fill="#d97757" fill-opacity="0.796" />
  <rect x="187.11" y="171.60" width="13.65" height="13.65" rx="3.41" fill="#d97757" fill-opacity="0.288" />
  <rect x="202.63" y="171.60" width="13.65" height="13.65" rx="3.41" fill="#d97757" fill-opacity="0.144" />
  <rect x="295.72" y="171.60" width="13.65" height="13.65" rx="3.41" fill="#d97757" fill-opacity="0.144" />
  <rect x="311.23" y="171.60" width="13.65" height="13.65" rx="3.41" fill="#d97757" fill-opacity="0.288" />
  <rect x="342.26" y="171.60" width="13.65" height="13.65" rx="3.41" fill="#d97757" fill-opacity="0.786" />
  <rect x="357.78" y="171.60" width="13.65" height="13.65" rx="3.41" fill="#d97757" fill-opacity="0.493" />
  <rect x="373.29" y="171.60" width="13.65" height="13.65" rx="3.41" fill="#d97757" fill-opacity="0.381" />
  <rect x="388.81" y="171.60" width="13.65" height="13.65" rx="3.41" fill="#d97757" fill-opacity="0.851" />
  <rect x="404.32" y="171.60" width="13.65" height="13.65" rx="3.41" fill="#d97757" fill-opacity="0.148" />
  <rect x="94.02" y="187.11" width="13.65" height="13.65" rx="3.41" fill="#d97757" fill-opacity="0.153" />
  <rect x="109.54" y="187.11" width="13.65" height="13.65" rx="3.41" fill="#d97757" fill-opacity="0.862" />
  <rect x="125.05" y="187.11" width="13.65" height="13.65" rx="3.41" fill="#d97757" fill-opacity="0.474" />
  <rect x="140.57" y="187.11" width="13.65" height="13.65" rx="3.41" fill="#d97757" fill-opacity="0.564" />
  <rect x="156.08" y="187.11" width="13.65" height="13.65" rx="3.41" fill="#d97757" fill-opacity="0.824" />
  <rect x="171.60" y="187.11" width="13.65" height="13.65" rx="3.41" fill="#d97757" fill-opacity="0.288" />
  <rect x="187.11" y="187.11" width="13.65" height="13.65" rx="3.41" fill="#d97757" fill-opacity="0.744" />
  <rect x="202.63" y="187.11" width="13.65" height="13.65" rx="3.41" fill="#d97757" fill-opacity="0.357" />
  <rect x="295.72" y="187.11" width="13.65" height="13.65" rx="3.41" fill="#d97757" fill-opacity="0.361" />
  <rect x="311.23" y="187.11" width="13.65" height="13.65" rx="3.41" fill="#d97757" fill-opacity="0.740" />
  <rect x="326.75" y="187.11" width="13.65" height="13.65" rx="3.41" fill="#d97757" fill-opacity="0.288" />
  <rect x="342.26" y="187.11" width="13.65" height="13.65" rx="3.41" fill="#d97757" fill-opacity="0.817" />
  <rect x="357.78" y="187.11" width="13.65" height="13.65" rx="3.41" fill="#d97757" fill-opacity="0.564" />
  <rect x="373.29" y="187.11" width="13.65" height="13.65" rx="3.41" fill="#d97757" fill-opacity="0.470" />
  <rect x="388.81" y="187.11" width="13.65" height="13.65" rx="3.41" fill="#d97757" fill-opacity="0.855" />
  <rect x="404.32" y="187.11" width="13.65" height="13.65" rx="3.41" fill="#d97757" fill-opacity="0.148" />
  <rect x="94.02" y="202.63" width="13.65" height="13.65" rx="3.41" fill="#d97757" fill-opacity="0.153" />
  <rect x="109.54" y="202.63" width="13.65" height="13.65" rx="3.41" fill="#d97757" fill-opacity="0.872" />
  <rect x="125.05" y="202.63" width="13.65" height="13.65" rx="3.41" fill="#d97757" fill-opacity="0.930" />
  <rect x="140.57" y="202.63" width="13.65" height="13.65" rx="3.41" fill="#d97757" fill-opacity="0.940" />
  <rect x="156.08" y="202.63" width="13.65" height="13.65" rx="3.41" fill="#d97757" fill-opacity="0.977" />
  <rect x="171.60" y="202.63" width="13.65" height="13.65" rx="3.41" fill="#d97757" fill-opacity="0.841" />
  <rect x="187.11" y="202.63" width="13.65" height="13.65" rx="3.41" fill="#d97757" fill-opacity="0.309" />
  <rect x="311.23" y="202.63" width="13.65" height="13.65" rx="3.41" fill="#d97757" fill-opacity="0.309" />
  <rect x="326.75" y="202.63" width="13.65" height="13.65" rx="3.41" fill="#d97757" fill-opacity="0.841" />
  <rect x="342.26" y="202.63" width="13.65" height="13.65" rx="3.41" fill="#d97757" fill-opacity="0.973" />
  <rect x="357.78" y="202.63" width="13.65" height="13.65" rx="3.41" fill="#d97757" fill-opacity="0.940" />
  <rect x="373.29" y="202.63" width="13.65" height="13.65" rx="3.41" fill="#d97757" fill-opacity="0.930" />
  <rect x="388.81" y="202.63" width="13.65" height="13.65" rx="3.41" fill="#d97757" fill-opacity="0.872" />
  <rect x="404.32" y="202.63" width="13.65" height="13.65" rx="3.41" fill="#d97757" fill-opacity="0.153" />
  <rect x="94.02" y="218.14" width="13.65" height="13.65" rx="3.41" fill="#d97757" fill-opacity="0.153" />
  <rect x="109.54" y="218.14" width="13.65" height="13.65" rx="3.41" fill="#d97757" fill-opacity="0.875" />
  <rect x="125.05" y="218.14" width="13.65" height="13.65" rx="3.41" fill="#d97757" fill-opacity="1.000" />
  <rect x="140.57" y="218.14" width="13.65" height="13.65" rx="3.41" fill="#d97757" fill-opacity="1.000" />
  <rect x="156.08" y="218.14" width="13.65" height="13.65" rx="3.41" fill="#d97757" fill-opacity="1.000" />
  <rect x="171.60" y="218.14" width="13.65" height="13.65" rx="3.41" fill="#d97757" fill-opacity="0.926" />
  <rect x="187.11" y="218.14" width="13.65" height="13.65" rx="3.41" fill="#d97757" fill-opacity="0.238" />
  <rect x="202.63" y="218.14" width="13.65" height="13.65" rx="3.41" fill="#d97757" fill-opacity="0.519" />
  <rect x="218.14" y="218.14" width="13.65" height="13.65" rx="3.41" fill="#d97757" fill-opacity="0.493" />
  <rect x="280.20" y="218.14" width="13.65" height="13.65" rx="3.41" fill="#d97757" fill-opacity="0.497" />
  <rect x="295.72" y="218.14" width="13.65" height="13.65" rx="3.41" fill="#d97757" fill-opacity="0.523" />
  <rect x="311.23" y="218.14" width="13.65" height="13.65" rx="3.41" fill="#d97757" fill-opacity="0.238" />
  <rect x="326.75" y="218.14" width="13.65" height="13.65" rx="3.41" fill="#d97757" fill-opacity="0.926" />
  <rect x="342.26" y="218.14" width="13.65" height="13.65" rx="3.41" fill="#d97757" fill-opacity="1.000" />
  <rect x="357.78" y="218.14" width="13.65" height="13.65" rx="3.41" fill="#d97757" fill-opacity="1.000" />
  <rect x="373.29" y="218.14" width="13.65" height="13.65" rx="3.41" fill="#d97757" fill-opacity="0.997" />
  <rect x="388.81" y="218.14" width="13.65" height="13.65" rx="3.41" fill="#d97757" fill-opacity="0.872" />
  <rect x="404.32" y="218.14" width="13.65" height="13.65" rx="3.41" fill="#d97757" fill-opacity="0.153" />
  <rect x="109.54" y="233.66" width="13.65" height="13.65" rx="3.41" fill="#d97757" fill-opacity="0.497" />
  <rect x="125.05" y="233.66" width="13.65" height="13.65" rx="3.41" fill="#d97757" fill-opacity="0.564" />
  <rect x="140.57" y="233.66" width="13.65" height="13.65" rx="3.41" fill="#d97757" fill-opacity="0.761" />
  <rect x="156.08" y="233.66" width="13.65" height="13.65" rx="3.41" fill="#d97757" fill-opacity="1.000" />
  <rect x="171.60" y="233.66" width="13.65" height="13.65" rx="3.41" fill="#d97757" fill-opacity="0.963" />
  <rect x="187.11" y="233.66" width="13.65" height="13.65" rx="3.41" fill="#d97757" fill-opacity="0.648" />
  <rect x="202.63" y="233.66" width="13.65" height="13.65" rx="3.41" fill="#d97757" fill-opacity="0.848" />
  <rect x="218.14" y="233.66" width="13.65" height="13.65" rx="3.41" fill="#d97757" fill-opacity="0.655" />
  <rect x="280.20" y="233.66" width="13.65" height="13.65" rx="3.41" fill="#d97757" fill-opacity="0.655" />
  <rect x="295.72" y="233.66" width="13.65" height="13.65" rx="3.41" fill="#d97757" fill-opacity="0.851" />
  <rect x="311.23" y="233.66" width="13.65" height="13.65" rx="3.41" fill="#d97757" fill-opacity="0.648" />
  <rect x="326.75" y="233.66" width="13.65" height="13.65" rx="3.41" fill="#d97757" fill-opacity="0.963" />
  <rect x="342.26" y="233.66" width="13.65" height="13.65" rx="3.41" fill="#d97757" fill-opacity="1.000" />
  <rect x="357.78" y="233.66" width="13.65" height="13.65" rx="3.41" fill="#d97757" fill-opacity="0.761" />
  <rect x="373.29" y="233.66" width="13.65" height="13.65" rx="3.41" fill="#d97757" fill-opacity="0.568" />
  <rect x="388.81" y="233.66" width="13.65" height="13.65" rx="3.41" fill="#d97757" fill-opacity="0.493" />
  <rect x="140.57" y="249.17" width="13.65" height="13.65" rx="3.41" fill="#d97757" fill-opacity="0.381" />
  <rect x="156.08" y="249.17" width="13.65" height="13.65" rx="3.41" fill="#d97757" fill-opacity="0.768" />
  <rect x="171.60" y="249.17" width="13.65" height="13.65" rx="3.41" fill="#d97757" fill-opacity="0.789" />
  <rect x="187.11" y="249.17" width="13.65" height="13.65" rx="3.41" fill="#d97757" fill-opacity="0.960" />
  <rect x="202.63" y="249.17" width="13.65" height="13.65" rx="3.41" fill="#d97757" fill-opacity="1.000" />
  <rect x="218.14" y="249.17" width="13.65" height="13.65" rx="3.41" fill="#d97757" fill-opacity="0.754" />
  <rect x="233.66" y="249.17" width="13.65" height="13.65" rx="3.41" fill="#d97757" fill-opacity="0.284" />
  <rect x="264.69" y="249.17" width="13.65" height="13.65" rx="3.41" fill="#d97757" fill-opacity="0.280" />
  <rect x="280.20" y="249.17" width="13.65" height="13.65" rx="3.41" fill="#d97757" fill-opacity="0.754" />
  <rect x="295.72" y="249.17" width="13.65" height="13.65" rx="3.41" fill="#d97757" fill-opacity="1.000" />
  <rect x="311.23" y="249.17" width="13.65" height="13.65" rx="3.41" fill="#d97757" fill-opacity="0.960" />
  <rect x="326.75" y="249.17" width="13.65" height="13.65" rx="3.41" fill="#d97757" fill-opacity="0.789" />
  <rect x="342.26" y="249.17" width="13.65" height="13.65" rx="3.41" fill="#d97757" fill-opacity="0.765" />
  <rect x="357.78" y="249.17" width="13.65" height="13.65" rx="3.41" fill="#d97757" fill-opacity="0.381" />
  <rect x="171.60" y="264.69" width="13.65" height="13.65" rx="3.41" fill="#d97757" fill-opacity="0.153" />
  <rect x="187.11" y="264.69" width="13.65" height="13.65" rx="3.41" fill="#d97757" fill-opacity="0.782" />
  <rect x="202.63" y="264.69" width="13.65" height="13.65" rx="3.41" fill="#d97757" fill-opacity="0.909" />
  <rect x="218.14" y="264.69" width="13.65" height="13.65" rx="3.41" fill="#d97757" fill-opacity="0.933" />
  <rect x="233.66" y="264.69" width="13.65" height="13.65" rx="3.41" fill="#d97757" fill-opacity="0.796" />
  <rect x="249.17" y="264.69" width="13.65" height="13.65" rx="3.41" fill="#d97757" fill-opacity="0.171" />
  <rect x="264.69" y="264.69" width="13.65" height="13.65" rx="3.41" fill="#d97757" fill-opacity="0.793" />
  <rect x="280.20" y="264.69" width="13.65" height="13.65" rx="3.41" fill="#d97757" fill-opacity="0.936" />
  <rect x="295.72" y="264.69" width="13.65" height="13.65" rx="3.41" fill="#d97757" fill-opacity="0.909" />
  <rect x="311.23" y="264.69" width="13.65" height="13.65" rx="3.41" fill="#d97757" fill-opacity="0.779" />
  <rect x="326.75" y="264.69" width="13.65" height="13.65" rx="3.41" fill="#d97757" fill-opacity="0.153" />
  <rect x="187.11" y="280.20" width="13.65" height="13.65" rx="3.41" fill="#d97757" fill-opacity="0.189" />
  <rect x="202.63" y="280.20" width="13.65" height="13.65" rx="3.41" fill="#d97757" fill-opacity="0.216" />
  <rect x="218.14" y="280.20" width="13.65" height="13.65" rx="3.41" fill="#d97757" fill-opacity="0.564" />
  <rect x="233.66" y="280.20" width="13.65" height="13.65" rx="3.41" fill="#d97757" fill-opacity="0.813" />
  <rect x="249.17" y="280.20" width="13.65" height="13.65" rx="3.41" fill="#d97757" fill-opacity="0.171" />
  <rect x="264.69" y="280.20" width="13.65" height="13.65" rx="3.41" fill="#d97757" fill-opacity="0.810" />
  <rect x="280.20" y="280.20" width="13.65" height="13.65" rx="3.41" fill="#d97757" fill-opacity="0.564" />
  <rect x="295.72" y="280.20" width="13.65" height="13.65" rx="3.41" fill="#d97757" fill-opacity="0.220" />
  <rect x="311.23" y="280.20" width="13.65" height="13.65" rx="3.41" fill="#d97757" fill-opacity="0.185" />
  <rect x="156.08" y="295.72" width="13.65" height="13.65" rx="3.41" fill="#d97757" fill-opacity="0.203" />
  <rect x="171.60" y="295.72" width="13.65" height="13.65" rx="3.41" fill="#d97757" fill-opacity="0.684" />
  <rect x="187.11" y="295.72" width="13.65" height="13.65" rx="3.41" fill="#d97757" fill-opacity="0.719" />
  <rect x="202.63" y="295.72" width="13.65" height="13.65" rx="3.41" fill="#d97757" fill-opacity="0.716" />
  <rect x="218.14" y="295.72" width="13.65" height="13.65" rx="3.41" fill="#d97757" fill-opacity="0.834" />
  <rect x="233.66" y="295.72" width="13.65" height="13.65" rx="3.41" fill="#d97757" fill-opacity="0.817" />
  <rect x="249.17" y="295.72" width="13.65" height="13.65" rx="3.41" fill="#d97757" fill-opacity="0.171" />
  <rect x="264.69" y="295.72" width="13.65" height="13.65" rx="3.41" fill="#d97757" fill-opacity="0.810" />
  <rect x="280.20" y="295.72" width="13.65" height="13.65" rx="3.41" fill="#d97757" fill-opacity="0.834" />
  <rect x="295.72" y="295.72" width="13.65" height="13.65" rx="3.41" fill="#d97757" fill-opacity="0.719" />
  <rect x="311.23" y="295.72" width="13.65" height="13.65" rx="3.41" fill="#d97757" fill-opacity="0.716" />
  <rect x="326.75" y="295.72" width="13.65" height="13.65" rx="3.41" fill="#d97757" fill-opacity="0.684" />
  <rect x="342.26" y="295.72" width="13.65" height="13.65" rx="3.41" fill="#d97757" fill-opacity="0.207" />
  <rect x="156.08" y="311.23" width="13.65" height="13.65" rx="3.41" fill="#d97757" fill-opacity="0.233" />
  <rect x="171.60" y="311.23" width="13.65" height="13.65" rx="3.41" fill="#d97757" fill-opacity="0.807" />
  <rect x="187.11" y="311.23" width="13.65" height="13.65" rx="3.41" fill="#d97757" fill-opacity="0.970" />
  <rect x="202.63" y="311.23" width="13.65" height="13.65" rx="3.41" fill="#d97757" fill-opacity="1.000" />
  <rect x="218.14" y="311.23" width="13.65" height="13.65" rx="3.41" fill="#d97757" fill-opacity="0.997" />
  <rect x="233.66" y="311.23" width="13.65" height="13.65" rx="3.41" fill="#d97757" fill-opacity="0.820" />
  <rect x="249.17" y="311.23" width="13.65" height="13.65" rx="3.41" fill="#d97757" fill-opacity="0.176" />
  <rect x="264.69" y="311.23" width="13.65" height="13.65" rx="3.41" fill="#d97757" fill-opacity="0.813" />
  <rect x="280.20" y="311.23" width="13.65" height="13.65" rx="3.41" fill="#d97757" fill-opacity="1.000" />
  <rect x="295.72" y="311.23" width="13.65" height="13.65" rx="3.41" fill="#d97757" fill-opacity="1.000" />
  <rect x="311.23" y="311.23" width="13.65" height="13.65" rx="3.41" fill="#d97757" fill-opacity="0.970" />
  <rect x="326.75" y="311.23" width="13.65" height="13.65" rx="3.41" fill="#d97757" fill-opacity="0.807" />
  <rect x="342.26" y="311.23" width="13.65" height="13.65" rx="3.41" fill="#d97757" fill-opacity="0.238" />
  <rect x="171.60" y="326.75" width="13.65" height="13.65" rx="3.41" fill="#d97757" fill-opacity="0.194" />
  <rect x="187.11" y="326.75" width="13.65" height="13.65" rx="3.41" fill="#d97757" fill-opacity="0.813" />
  <rect x="202.63" y="326.75" width="13.65" height="13.65" rx="3.41" fill="#d97757" fill-opacity="0.977" />
  <rect x="218.14" y="326.75" width="13.65" height="13.65" rx="3.41" fill="#d97757" fill-opacity="1.000" />
  <rect x="233.66" y="326.75" width="13.65" height="13.65" rx="3.41" fill="#d97757" fill-opacity="0.820" />
  <rect x="249.17" y="326.75" width="13.65" height="13.65" rx="3.41" fill="#d97757" fill-opacity="0.176" />
  <rect x="264.69" y="326.75" width="13.65" height="13.65" rx="3.41" fill="#d97757" fill-opacity="0.813" />
  <rect x="280.20" y="326.75" width="13.65" height="13.65" rx="3.41" fill="#d97757" fill-opacity="1.000" />
  <rect x="295.72" y="326.75" width="13.65" height="13.65" rx="3.41" fill="#d97757" fill-opacity="0.980" />
  <rect x="311.23" y="326.75" width="13.65" height="13.65" rx="3.41" fill="#d97757" fill-opacity="0.807" />
  <rect x="326.75" y="326.75" width="13.65" height="13.65" rx="3.41" fill="#d97757" fill-opacity="0.189" />
  <rect x="187.11" y="342.26" width="13.65" height="13.65" rx="3.41" fill="#d97757" fill-opacity="0.225" />
  <rect x="202.63" y="342.26" width="13.65" height="13.65" rx="3.41" fill="#d97757" fill-opacity="0.744" />
  <rect x="218.14" y="342.26" width="13.65" height="13.65" rx="3.41" fill="#d97757" fill-opacity="0.993" />
  <rect x="233.66" y="342.26" width="13.65" height="13.65" rx="3.41" fill="#d97757" fill-opacity="0.824" />
  <rect x="249.17" y="342.26" width="13.65" height="13.65" rx="3.41" fill="#d97757" fill-opacity="0.176" />
  <rect x="264.69" y="342.26" width="13.65" height="13.65" rx="3.41" fill="#d97757" fill-opacity="0.813" />
  <rect x="280.20" y="342.26" width="13.65" height="13.65" rx="3.41" fill="#d97757" fill-opacity="0.993" />
  <rect x="295.72" y="342.26" width="13.65" height="13.65" rx="3.41" fill="#d97757" fill-opacity="0.751" />
  <rect x="311.23" y="342.26" width="13.65" height="13.65" rx="3.41" fill="#d97757" fill-opacity="0.225" />
  <rect x="202.63" y="357.78" width="13.65" height="13.65" rx="3.41" fill="#d97757" fill-opacity="0.301" />
  <rect x="218.14" y="357.78" width="13.65" height="13.65" rx="3.41" fill="#d97757" fill-opacity="0.680" />
  <rect x="233.66" y="357.78" width="13.65" height="13.65" rx="3.41" fill="#d97757" fill-opacity="0.820" />
  <rect x="249.17" y="357.78" width="13.65" height="13.65" rx="3.41" fill="#d97757" fill-opacity="0.176" />
  <rect x="264.69" y="357.78" width="13.65" height="13.65" rx="3.41" fill="#d97757" fill-opacity="0.810" />
  <rect x="280.20" y="357.78" width="13.65" height="13.65" rx="3.41" fill="#d97757" fill-opacity="0.684" />
  <rect x="295.72" y="357.78" width="13.65" height="13.65" rx="3.41" fill="#d97757" fill-opacity="0.301" />
  <rect x="218.14" y="373.29" width="13.65" height="13.65" rx="3.41" fill="#d97757" fill-opacity="0.309" />
  <rect x="233.66" y="373.29" width="13.65" height="13.65" rx="3.41" fill="#d97757" fill-opacity="0.534" />
  <rect x="264.69" y="373.29" width="13.65" height="13.65" rx="3.41" fill="#d97757" fill-opacity="0.531" />
  <rect x="280.20" y="373.29" width="13.65" height="13.65" rx="3.41" fill="#d97757" fill-opacity="0.309" />
</svg>